<svg width="2713" height="2711" viewBox="0 0 2713 2711" fill="none" xmlns="http://www.w3.org/2000/svg">
<path d="M1215 2711H1082V2631H1215V2711Z" fill="#D2A855"/>
<path d="M1354 2711H1221V2665H1354V2711Z" fill="#D2A855"/>
<path d="M1492 2711H1359V2665H1492V2711Z" fill="#D2A855"/>
<path d="M1633 2711H1500V2631H1633V2711Z" fill="#D2A855"/>
<path d="M1072 2671H939V2591H1072V2671Z" fill="#D2A855"/>
<path d="M1776 2671H1643V2591H1776V2671Z" fill="#D2A855"/>
<path d="M1359 2665H1354V2289H1359V2665Z" fill="#D2A855"/>
<path d="M932 2629H799V2549H932V2629Z" fill="#D2A855"/>
<path d="M1916 2629H1783V2549H1916V2629Z" fill="#D2A855"/>
<path d="M792 2596H750V2557H792V2596Z" fill="#D2A855"/>
<path d="M1965 2596H1923V2557H1965V2596Z" fill="#D2A855"/>
<path d="M715 2499H792V2546H662V2455H715V2499Z" fill="#D2A855"/>
<path d="M2053 2546H1923V2499H2000V2455H2053V2546Z" fill="#D2A855"/>
<path d="M608 2411H653V2496H570V2453H521V2368H608V2411Z" fill="#D2A855"/>
<path d="M2194 2453H2145V2496H2062V2411H2107V2368H2194V2453Z" fill="#D2A855"/>
<path d="M473 2318H512V2411H473V2363H429V2351H405V2321H381V2275H473V2318Z" fill="#D2A855"/>
<path d="M2334 2321H2310V2351H2286V2363H2242V2411H2203V2318H2242V2275H2334V2321Z" fill="#D2A855"/>
<path d="M1353 2168H1333V2110H1353V2168Z" fill="#D2A855"/>
<path d="M1379 2168H1359V2110H1379V2168Z" fill="#563B1A"/>
<path d="M1353 2103H1333V2055H1284V1961H1353V2103Z" fill="#D2A855"/>
<path d="M1428 2055H1379V2103H1359V1961H1428V2055Z" fill="#563B1A"/>
<path d="M1353 1954H1217V1811H1353V1954Z" fill="#D2A855"/>
<path d="M1495 1954H1359V1811H1495V1954Z" fill="#563B1A"/>
<path d="M1353 1804H1217V1661H1353V1804Z" fill="#D2A855"/>
<path d="M1495 1804H1359V1661H1495V1804Z" fill="#563B1A"/>
<path d="M1209 1709H1165V1665H1209V1709Z" fill="#D2A855"/>
<path d="M1545 1709H1501V1665H1545V1709Z" fill="#563B1A"/>
<path d="M1209 1656H1165V1623H1119V1577H1073V1513H1209V1656Z" fill="#D2A855"/>
<path d="M1353 1656H1217V1513H1353V1656Z" fill="#D2A855"/>
<path d="M1495 1656H1359V1513H1495V1656Z" fill="#563B1A"/>
<path d="M1637 1577H1591V1623H1545V1656H1501V1513H1637V1577Z" fill="#563B1A"/>
<path d="M925 1506H789V1363H925V1506Z" fill="#D2A855"/>
<path d="M1067 1506H931V1363H1067V1506Z" fill="#D2A855"/>
<path d="M1209 1506H1073V1363H1209V1506Z" fill="#D2A855"/>
<path d="M1921 1506H1785V1363H1921V1506Z" fill="#563B1A"/>
<path d="M1353 1504H1217V1361H1353V1504Z" fill="#D2A855"/>
<path d="M1495 1504H1359V1361H1495V1504Z" fill="#563B1A"/>
<path d="M1637 1504H1501V1361H1637V1504Z" fill="#563B1A"/>
<path d="M1779 1504H1643V1361H1779V1504Z" fill="#563B1A"/>
<path d="M783 1406H739V1447H649V1365H783V1406Z" fill="#D2A855"/>
<path d="M2061 1445H1971V1404H1927V1363H2061V1445Z" fill="#563B1A"/>
<path d="M590 1381H528V1365H590V1381Z" fill="#D2A855"/>
<path d="M2182 1379H2120V1363H2182V1379Z" fill="#563B1A"/>
<path d="M638 1375H599V1365H638V1375Z" fill="#D2A855"/>
<path d="M2111 1373H2072V1363H2111V1373Z" fill="#D2A855"/>
<path d="M590 1360H528V1344H590V1360Z" fill="#543A1A"/>
<path d="M638 1360H599V1350H638V1360Z" fill="#543A1A"/>
<path d="M739 1319H783V1360H649V1278H739V1319Z" fill="#543A1A"/>
<path d="M925 1358H789V1215H925V1358Z" fill="#543A1A"/>
<path d="M1067 1358H931V1215H1067V1358Z" fill="#543A1A"/>
<path d="M1209 1358H1073V1215H1209V1358Z" fill="#543A1A"/>
<path d="M1921 1358H1785V1215H1921V1358Z" fill="#D2A855"/>
<path d="M2061 1358H1927V1317H1971V1276H2061V1358Z" fill="#D2A855"/>
<path d="M2111 1358H2072V1348H2111V1358Z" fill="#D2A855"/>
<path d="M2182 1358H2120V1342H2182V1358Z" fill="#D2A855"/>
<path d="M1637 1356H1501V1213H1637V1356Z" fill="#D2A855"/>
<path d="M1779 1356H1643V1213H1779V1356Z" fill="#D2A855"/>
<path d="M1209 1208H1073V1144H1119V1098H1165V1065H1209V1208Z" fill="#D2A855"/>
<path d="M1353 1208H1217V1065H1353V1208Z" fill="#D2A855"/>
<path d="M1495 1208H1359V1065H1495V1208Z" fill="#553B19"/>
<path d="M1545 1098H1591V1144H1637V1208H1501V1065H1545V1098Z" fill="#D2A855"/>
<path d="M1353 1060H1217V917H1353V1060Z" fill="#D2A855"/>
<path d="M1495 1060H1359V917H1495V1060Z" fill="#553B19"/>
<path d="M1209 1056H1165V1012H1209V1056Z" fill="#D2A855"/>
<path d="M1545 1056H1501V1012H1545V1056Z" fill="#D2A855"/>
<path d="M1353 910H1217V767H1353V910Z" fill="#D2A855"/>
<path d="M1495 910H1359V767H1495V910Z" fill="#553B19"/>
<path d="M1353 757H1284V663H1333V615H1353V757Z" fill="#D2A855"/>
<path d="M1379 663H1428V757H1359V615H1379V663Z" fill="#553B19"/>
<path d="M1353 608H1333V550H1353V608Z" fill="#D2A855"/>
<path d="M1379 608H1359V550H1379V608Z" fill="#553B19"/>
<path d="M1354 490H1342V431H1354V490Z" fill="#D2A855"/>
<path d="M1371 490H1359V431H1371V490Z" fill="#553B19"/>
<path fill-rule="evenodd" clip-rule="evenodd" d="M1355.5 416C1873.26 416 2293 835.283 2293 1352.5C2293 1869.72 1873.26 2289 1355.5 2289C841.913 2289 424.781 1876.46 418.083 1365H48V1500H0V1363H47V1360H0V1223H48V1360H418.03C418.011 1357.5 418 1355 418 1352.5C418 835.283 837.735 416 1355.5 416ZM1355.5 420C839.94 420 422 837.496 422 1352.5C422 1353.33 422.002 1354.17 422.004 1355H482V1360H422.031C422.044 1361.67 422.061 1363.33 422.083 1365H482V1370H422.162C431.419 1872.44 838.497 2277.77 1342 2284.9V2228H1354V2285C1354.5 2285 1355 2285 1355.5 2285C1356.67 2285 1357.83 2285 1359 2284.99V2228H1371V2284.87C1874.25 2276.69 2280.67 1870.7 2288.87 1368H2228V1363H2288.94C2288.96 1361.33 2288.97 1359.67 2288.98 1358H2228V1353H2289C2289 1352.83 2289 1352.67 2289 1352.5C2289 837.496 1871.06 420 1355.5 420Z" fill="#D2A855"/>
<path d="M328 2185H372V2268H328V2227H287V2215H263V2185H239V2149H227V2099H328V2185Z" fill="#D2A855"/>
<path d="M2488 2149H2476V2185H2452V2215H2428V2227H2387V2268H2343V2185H2387V2099H2488V2149Z" fill="#D2A855"/>
<path d="M225 2001H267V2090H182V1985H131V1956H225V2001Z" fill="#D2A855"/>
<path d="M2584 1985H2533V2090H2448V2001H2490V1956H2584V1985Z" fill="#D2A855"/>
<path d="M143 1844H185V1945H131V1889H87V1802H143V1844Z" fill="#D2A855"/>
<path d="M2628 1889H2584V1945H2530V1844H2572V1802H2628V1889Z" fill="#D2A855"/>
<path d="M129 1792H48V1655H129V1792Z" fill="#D2A855"/>
<path d="M2667 1792H2586V1655H2667V1792Z" fill="#D2A855"/>
<path d="M85 1646H4V1503H85V1646Z" fill="#D2A855"/>
<path d="M2711 1646H2630V1503H2711V1646Z" fill="#D2A855"/>
<path d="M2711 1358.5H2663.23V1361.5H2709.01V1498.5L2663.23 1497.5V1361.5L2293 1362.5V1357.5H2663.23V1221.5H2711V1358.5Z" fill="#D2A855"/>
<path d="M81.5 1212.5H0.5V1069.5H81.5V1212.5Z" fill="#D2A855"/>
<path d="M2713 1208H2632V1065H2713V1208Z" fill="#D2A855"/>
<path d="M129 1056H48V919H129V1056Z" fill="#D2A855"/>
<path d="M2669 1056H2588V919H2669V1056Z" fill="#D2A855"/>
<path d="M185 867H143V909H87V822H131V766H185V867Z" fill="#D2A855"/>
<path d="M2586 822H2630V909H2574V867H2532V766H2586V822Z" fill="#D2A855"/>
<path d="M267 710H225V755H131V726H182V621H267V710Z" fill="#D2A855"/>
<path d="M2535 726H2586V755H2492V710H2450V621H2535V726Z" fill="#D2A855"/>
<path d="M372 526H328V612H227V562H239V526H263V496H287V484H328V443H372V526Z" fill="#D2A855"/>
<path d="M2389 484H2430V496H2454V526H2478V562H2490V612H2389V526H2345V443H2389V484Z" fill="#D2A855"/>
<path d="M512 393H473V436H381V390H405V360H429V348H473V300H512V393Z" fill="#D2A855"/>
<path d="M2244 348H2288V360H2312V390H2336V436H2244V393H2205V300H2244V348Z" fill="#D2A855"/>
<path d="M1355.5 416H1350.5V46H1355.5V416Z" fill="#D2A855"/>
<path d="M653 300H608V343H521V258H570V215H653V300Z" fill="#D2A855"/>
<path d="M2147 258H2196V343H2109V300H2064V215H2147V258Z" fill="#D2A855"/>
<path d="M792 212H715V256H662V165H792V212Z" fill="#D2A855"/>
<path d="M2055 256H2002V212H1925V165H2055V256Z" fill="#D2A855"/>
<path d="M932 162H799V82H932V162Z" fill="#D2A855"/>
<path d="M1918 162H1785V82H1918V162Z" fill="#D2A855"/>
<path d="M792 154H750V115H792V154Z" fill="#D2A855"/>
<path d="M1967 154H1925V115H1967V154Z" fill="#D2A855"/>
<path d="M1072 120H939V40H1072V120Z" fill="#D2A855"/>
<path d="M1778 120H1645V40H1778V120Z" fill="#D2A855"/>
<path d="M1215 80H1082V0H1215V80Z" fill="#D2A855"/>
<path d="M1635 80H1502V0H1635V80Z" fill="#D2A855"/>
<path d="M1350.5 46H1223V0H1350.5V46Z" fill="#D2A855"/>
<path d="M1494 46H1355.5V0H1494V46Z" fill="#D2A855"/>
<path d="M1217 1268H1290V1312H1217V1268Z" fill="#563B1A"/>
<path d="M1360 1303H1433V1259H1360V1303Z" fill="#563B1A"/>
<path d="M1290 1268H1352V1312H1290V1268Z" fill="#D2A855"/>
<path d="M1433 1303H1495V1259H1433V1303Z" fill="#D2A855"/>
<path d="M1217 1215H1352V1268H1217V1215Z" fill="#D2A855"/>
<path d="M1360 1356H1495V1303H1360V1356Z" fill="#D2A855"/>
<path d="M1217 1312H1352V1356H1217V1312Z" fill="#563B1A"/>
<path d="M1360 1259H1495V1215H1360V1259Z" fill="#563B1A"/>
</svg>
