<svg width="4181" height="4011" viewBox="0 0 4181 4011" fill="none" xmlns="http://www.w3.org/2000/svg">
<path d="M608.168 3716V3184H570.168V3070H608.168V2994H684.168V3716H608.168ZM76.168 3716V2994H152.168V3070H190.168V3184H152.168V3716H76.168ZM304.168 3602V3526H266.168V3412H228.168V3298H190.168V3184H266.168V3298H304.168V3412H342.168V3526H418.168V3412H456.168V3298H494.168V3184H570.168V3298H532.168V3412H494.168V3526H456.168V3602H418.168V3678H342.168V3602H304.168ZM873.934 3336V3412H1177.93V3336H1139.93V3298H1101.93V3260H949.934V3298H911.934V3336H873.934ZM835.934 3640V3564H797.934V3336H835.934V3260H873.934V3222H911.934V3184H1139.93V3222H1177.93V3260H1215.93V3336H1253.93V3488H873.934V3564H911.934V3602H949.934V3640H1139.93V3602H1177.93V3564H1253.93V3640H1215.93V3678H1139.93V3716H911.934V3678H873.934V3640H835.934ZM1558.16 3260V3222H1596.16V3184H1710.16V3260H1558.16ZM1368.16 3716V3640H1444.16V3260H1368.16V3184H1520.16V3260H1558.16V3298H1520.16V3640H1634.16V3716H1368.16ZM1900.21 3108V2994H1976.21V3108H1900.21ZM1786.21 3716V3640H1900.21V3260H1786.21V3184H1976.21V3640H2090.21V3716H1786.21ZM2508.1 3640V3564H2546.1V3336H2508.1V3260H2546.1V2994H2622.1V3716H2546.1V3640H2508.1ZM2204.1 3640V3564H2166.1V3336H2204.1V3260H2242.1V3222H2280.1V3184H2470.1V3222H2508.1V3260H2318.1V3298H2280.1V3336H2242.1V3564H2280.1V3602H2318.1V3640H2508.1V3678H2470.1V3716H2280.1V3678H2242.1V3640H2204.1ZM2850.41 3108V2994H2926.41V3108H2850.41ZM2736.41 3716V3640H2850.41V3260H2736.41V3184H2926.41V3640H3040.41V3716H2736.41ZM3192.29 3336V3412H3496.29V3336H3458.29V3298H3420.29V3260H3268.29V3298H3230.29V3336H3192.29ZM3154.29 3640V3564H3116.29V3336H3154.29V3260H3192.29V3222H3230.29V3184H3458.29V3222H3496.29V3260H3534.29V3336H3572.29V3488H3192.29V3564H3230.29V3602H3268.29V3640H3458.29V3602H3496.29V3564H3572.29V3640H3534.29V3678H3458.29V3716H3230.29V3678H3192.29V3640H3154.29ZM3686.52 3716V3184H3762.52V3260H3800.52V3298H3762.52V3716H3686.52ZM4028.52 3716V3298H3990.52V3260H3800.52V3222H3838.52V3184H4028.52V3222H4066.52V3260H4104.52V3716H4028.52Z" fill="#D4A853"/>
<path d="M1949 2711H1816V2631H1949V2711Z" fill="#D2A855"/>
<path d="M2088 2711H1955V2665H2088V2711Z" fill="#D2A855"/>
<path d="M2226 2711H2093V2665H2226V2711Z" fill="#D2A855"/>
<path d="M2367 2711H2234V2631H2367V2711Z" fill="#D2A855"/>
<path d="M1806 2671H1673V2591H1806V2671Z" fill="#D2A855"/>
<path d="M2510 2671H2377V2591H2510V2671Z" fill="#D2A855"/>
<path d="M2093 2665H2088V2289H2093V2665Z" fill="#D2A855"/>
<path d="M1666 2629H1533V2549H1666V2629Z" fill="#D2A855"/>
<path d="M2650 2629H2517V2549H2650V2629Z" fill="#D2A855"/>
<path d="M1526 2596H1484V2557H1526V2596Z" fill="#D2A855"/>
<path d="M2699 2596H2657V2557H2699V2596Z" fill="#D2A855"/>
<path d="M1449 2499H1526V2546H1396V2455H1449V2499Z" fill="#D2A855"/>
<path d="M2787 2546H2657V2499H2734V2455H2787V2546Z" fill="#D2A855"/>
<path d="M1342 2411H1387V2496H1304V2453H1255V2368H1342V2411Z" fill="#D2A855"/>
<path d="M2928 2453H2879V2496H2796V2411H2841V2368H2928V2453Z" fill="#D2A855"/>
<path d="M1207 2318H1246V2411H1207V2363H1163V2351H1139V2321H1115V2275H1207V2318Z" fill="#D2A855"/>
<path d="M3068 2321H3044V2351H3020V2363H2976V2411H2937V2318H2976V2275H3068V2321Z" fill="#D2A855"/>
<path d="M2087 2168H2067V2110H2087V2168Z" fill="#D2A855"/>
<path d="M2113 2168H2093V2110H2113V2168Z" fill="#563B1A"/>
<path d="M2087 2103H2067V2055H2018V1961H2087V2103Z" fill="#D2A855"/>
<path d="M2162 2055H2113V2103H2093V1961H2162V2055Z" fill="#563B1A"/>
<path d="M2087 1954H1951V1811H2087V1954Z" fill="#D2A855"/>
<path d="M2229 1954H2093V1811H2229V1954Z" fill="#563B1A"/>
<path d="M2087 1804H1951V1661H2087V1804Z" fill="#D2A855"/>
<path d="M2229 1804H2093V1661H2229V1804Z" fill="#563B1A"/>
<path d="M1943 1709H1899V1665H1943V1709Z" fill="#D2A855"/>
<path d="M2279 1709H2235V1665H2279V1709Z" fill="#563B1A"/>
<path d="M1943 1656H1899V1623H1853V1577H1807V1513H1943V1656Z" fill="#D2A855"/>
<path d="M2087 1656H1951V1513H2087V1656Z" fill="#D2A855"/>
<path d="M2229 1656H2093V1513H2229V1656Z" fill="#563B1A"/>
<path d="M2371 1577H2325V1623H2279V1656H2235V1513H2371V1577Z" fill="#563B1A"/>
<path d="M1659 1506H1523V1363H1659V1506Z" fill="#D2A855"/>
<path d="M1801 1506H1665V1363H1801V1506Z" fill="#D2A855"/>
<path d="M1943 1506H1807V1363H1943V1506Z" fill="#D2A855"/>
<path d="M2655 1506H2519V1363H2655V1506Z" fill="#563B1A"/>
<path d="M2087 1504H1951V1361H2087V1504Z" fill="#D2A855"/>
<path d="M2229 1504H2093V1361H2229V1504Z" fill="#563B1A"/>
<path d="M2371 1504H2235V1361H2371V1504Z" fill="#563B1A"/>
<path d="M2513 1504H2377V1361H2513V1504Z" fill="#563B1A"/>
<path d="M1517 1406H1473V1447H1383V1365H1517V1406Z" fill="#D2A855"/>
<path d="M2795 1445H2705V1404H2661V1363H2795V1445Z" fill="#563B1A"/>
<path d="M1324 1381H1262V1365H1324V1381Z" fill="#D2A855"/>
<path d="M2916 1379H2854V1363H2916V1379Z" fill="#563B1A"/>
<path d="M1372 1375H1333V1365H1372V1375Z" fill="#D2A855"/>
<path d="M2845 1373H2806V1363H2845V1373Z" fill="#D2A855"/>
<path d="M1324 1360H1262V1344H1324V1360Z" fill="#543A1A"/>
<path d="M1372 1360H1333V1350H1372V1360Z" fill="#543A1A"/>
<path d="M1473 1319H1517V1360H1383V1278H1473V1319Z" fill="#543A1A"/>
<path d="M1659 1358H1523V1215H1659V1358Z" fill="#543A1A"/>
<path d="M1801 1358H1665V1215H1801V1358Z" fill="#543A1A"/>
<path d="M1943 1358H1807V1215H1943V1358Z" fill="#543A1A"/>
<path d="M2655 1358H2519V1215H2655V1358Z" fill="#D2A855"/>
<path d="M2795 1358H2661V1317H2705V1276H2795V1358Z" fill="#D2A855"/>
<path d="M2845 1358H2806V1348H2845V1358Z" fill="#D2A855"/>
<path d="M2916 1358H2854V1342H2916V1358Z" fill="#D2A855"/>
<path d="M2371 1356H2235V1213H2371V1356Z" fill="#D2A855"/>
<path d="M2513 1356H2377V1213H2513V1356Z" fill="#D2A855"/>
<path d="M1943 1208H1807V1144H1853V1098H1899V1065H1943V1208Z" fill="#D2A855"/>
<path d="M2087 1208H1951V1065H2087V1208Z" fill="#D2A855"/>
<path d="M2229 1208H2093V1065H2229V1208Z" fill="#553B19"/>
<path d="M2279 1098H2325V1144H2371V1208H2235V1065H2279V1098Z" fill="#D2A855"/>
<path d="M2087 1060H1951V917H2087V1060Z" fill="#D2A855"/>
<path d="M2229 1060H2093V917H2229V1060Z" fill="#553B19"/>
<path d="M1943 1056H1899V1012H1943V1056Z" fill="#D2A855"/>
<path d="M2279 1056H2235V1012H2279V1056Z" fill="#D2A855"/>
<path d="M2087 910H1951V767H2087V910Z" fill="#D2A855"/>
<path d="M2229 910H2093V767H2229V910Z" fill="#553B19"/>
<path d="M2087 757H2018V663H2067V615H2087V757Z" fill="#D2A855"/>
<path d="M2113 663H2162V757H2093V615H2113V663Z" fill="#553B19"/>
<path d="M2087 608H2067V550H2087V608Z" fill="#D2A855"/>
<path d="M2113 608H2093V550H2113V608Z" fill="#553B19"/>
<path d="M2088 490H2076V431H2088V490Z" fill="#D2A855"/>
<path d="M2105 490H2093V431H2105V490Z" fill="#553B19"/>
<path fill-rule="evenodd" clip-rule="evenodd" d="M2089.5 416C2607.26 416 3027 835.283 3027 1352.5C3027 1869.72 2607.26 2289 2089.5 2289C1575.91 2289 1158.78 1876.46 1152.08 1365H782V1500H734V1363H781V1360H734V1223H782V1360H1152.03C1152.01 1357.5 1152 1355 1152 1352.5C1152 835.283 1571.74 416 2089.5 416ZM2089.5 420C1573.94 420 1156 837.496 1156 1352.5C1156 1353.33 1156 1354.17 1156 1355H1216V1360H1156.03C1156.04 1361.67 1156.06 1363.33 1156.08 1365H1216V1370H1156.16C1165.42 1872.44 1572.5 2277.77 2076 2284.9V2228H2088V2285C2088.5 2285 2089 2285 2089.5 2285C2090.67 2285 2091.83 2285 2093 2284.99V2228H2105V2284.87C2608.25 2276.69 3014.67 1870.7 3022.87 1368H2962V1363H3022.94C3022.96 1361.33 3022.97 1359.67 3022.98 1358H2962V1353H3023C3023 1352.83 3023 1352.67 3023 1352.5C3023 837.496 2605.06 420 2089.5 420Z" fill="#D2A855"/>
<path d="M1062 2185H1106V2268H1062V2227H1021V2215H997V2185H973V2149H961V2099H1062V2185Z" fill="#D2A855"/>
<path d="M3222 2149H3210V2185H3186V2215H3162V2227H3121V2268H3077V2185H3121V2099H3222V2149Z" fill="#D2A855"/>
<path d="M959 2001H1001V2090H916V1985H865V1956H959V2001Z" fill="#D2A855"/>
<path d="M3318 1985H3267V2090H3182V2001H3224V1956H3318V1985Z" fill="#D2A855"/>
<path d="M877 1844H919V1945H865V1889H821V1802H877V1844Z" fill="#D2A855"/>
<path d="M3362 1889H3318V1945H3264V1844H3306V1802H3362V1889Z" fill="#D2A855"/>
<path d="M863 1792H782V1655H863V1792Z" fill="#D2A855"/>
<path d="M3401 1792H3320V1655H3401V1792Z" fill="#D2A855"/>
<path d="M819 1646H738V1503H819V1646Z" fill="#D2A855"/>
<path d="M3445 1646H3364V1503H3445V1646Z" fill="#D2A855"/>
<path d="M3445 1358.5H3397.23V1361.5H3443.01V1498.5L3397.23 1497.5V1361.5L3027 1362.5V1357.5H3397.23V1221.5H3445V1358.5Z" fill="#D2A855"/>
<path d="M815.5 1212.5H734.5V1069.5H815.5V1212.5Z" fill="#D2A855"/>
<path d="M3447 1208H3366V1065H3447V1208Z" fill="#D2A855"/>
<path d="M863 1056H782V919H863V1056Z" fill="#D2A855"/>
<path d="M3403 1056H3322V919H3403V1056Z" fill="#D2A855"/>
<path d="M919 867H877V909H821V822H865V766H919V867Z" fill="#D2A855"/>
<path d="M3320 822H3364V909H3308V867H3266V766H3320V822Z" fill="#D2A855"/>
<path d="M1001 710H959V755H865V726H916V621H1001V710Z" fill="#D2A855"/>
<path d="M3269 726H3320V755H3226V710H3184V621H3269V726Z" fill="#D2A855"/>
<path d="M1106 526H1062V612H961V562H973V526H997V496H1021V484H1062V443H1106V526Z" fill="#D2A855"/>
<path d="M3123 484H3164V496H3188V526H3212V562H3224V612H3123V526H3079V443H3123V484Z" fill="#D2A855"/>
<path d="M1246 393H1207V436H1115V390H1139V360H1163V348H1207V300H1246V393Z" fill="#D2A855"/>
<path d="M2978 348H3022V360H3046V390H3070V436H2978V393H2939V300H2978V348Z" fill="#D2A855"/>
<path d="M2089.5 416H2084.5V46H2089.5V416Z" fill="#D2A855"/>
<path d="M1387 300H1342V343H1255V258H1304V215H1387V300Z" fill="#D2A855"/>
<path d="M2881 258H2930V343H2843V300H2798V215H2881V258Z" fill="#D2A855"/>
<path d="M1526 212H1449V256H1396V165H1526V212Z" fill="#D2A855"/>
<path d="M2789 256H2736V212H2659V165H2789V256Z" fill="#D2A855"/>
<path d="M1666 162H1533V82H1666V162Z" fill="#D2A855"/>
<path d="M2652 162H2519V82H2652V162Z" fill="#D2A855"/>
<path d="M1526 154H1484V115H1526V154Z" fill="#D2A855"/>
<path d="M2701 154H2659V115H2701V154Z" fill="#D2A855"/>
<path d="M1806 120H1673V40H1806V120Z" fill="#D2A855"/>
<path d="M2512 120H2379V40H2512V120Z" fill="#D2A855"/>
<path d="M1949 80H1816V0H1949V80Z" fill="#D2A855"/>
<path d="M2369 80H2236V0H2369V80Z" fill="#D2A855"/>
<path d="M2084.5 46H1957V0H2084.5V46Z" fill="#D2A855"/>
<path d="M2228 46H2089.5V0H2228V46Z" fill="#D2A855"/>
<path d="M1951 1268H2024V1312H1951V1268Z" fill="#563B1A"/>
<path d="M2094 1303H2167V1259H2094V1303Z" fill="#563B1A"/>
<path d="M2024 1268H2086V1312H2024V1268Z" fill="#D2A855"/>
<path d="M2167 1303H2229V1259H2167V1303Z" fill="#D2A855"/>
<path d="M1951 1215H2086V1268H1951V1215Z" fill="#D2A855"/>
<path d="M2094 1356H2229V1303H2094V1356Z" fill="#D2A855"/>
<path d="M1951 1312H2086V1356H1951V1312Z" fill="#563B1A"/>
<path d="M2094 1259H2229V1215H2094V1259Z" fill="#563B1A"/>
</svg>
